<!DOCTYPE svg PUBLIC "-//W3C//DTD SVG 1.1//EN" "http://www.w3.org/Graphics/SVG/1.1/DTD/svg11.dtd">
<!-- Uploaded to: SVG Repo, www.svgrepo.com, Transformed by: SVG Repo Mixer Tools -->
<svg fill="#00ff00" width="800px" height="800px" viewBox="0 0 24 24" xmlns="http://www.w3.org/2000/svg" style="--darkreader-inline-fill: var(--darkreader-background-00ff00, #33cc00);" data-darkreader-inline-fill="">
<g id="SVGRepo_bgCarrier" stroke-width="0"/>
<g id="SVGRepo_tracerCarrier" stroke-linecap="round" stroke-linejoin="round"/>
<g id="SVGRepo_iconCarrier"> <path fill-rule="evenodd" d="M3,3 L21,3 C22.1045695,3 23,3.8954305 23,5 L23,19 C23,20.1045695 22.1045695,21 21,21 L3,21 C1.8954305,21 1,20.1045695 1,19 L1,5 C1,3.8954305 1.8954305,3 3,3 Z M3,5 L3,19 L21,19 L21,5 L3,5 Z M8.33333333,12 L5.4,9.8 L6.6,8.2 L11.6666667,12 L6.6,15.8 L5.4,14.2 L8.33333333,12 Z M12,16 L12,14 L17,14 L17,16 L12,16 Z"/> </g>
</svg>